<svg width="43" height="43" viewBox="0 0 43 43" fill="none" xmlns="http://www.w3.org/2000/svg">
<rect x="0.147461" y="0.523254" width="42.1705" height="42.1705" rx="21.0853" fill="#F0F2F5"/>
<path d="M28.5 25.4091V21.2479C28.5 17.6741 28.5 15.8872 27.4017 14.7769C26.3033 13.6667 24.5355 13.6667 21 13.6667C17.4645 13.6667 15.6967 13.6667 14.5983 14.7769C13.5 15.8872 13.5 17.6741 13.5 21.2479V25.4091C13.5 27.9896 13.5 29.2798 14.1118 29.8436C14.4035 30.1125 14.7718 30.2814 15.1641 30.3263C15.9867 30.4204 16.9473 29.5708 18.8685 27.8715C19.7177 27.1204 20.1423 26.7448 20.6336 26.6459C20.8755 26.5971 21.1245 26.5971 21.3664 26.6459C21.8577 26.7448 22.2823 27.1204 23.1315 27.8715C25.0527 29.5708 26.0133 30.4204 26.8359 30.3263C27.2282 30.2814 27.5965 30.1125 27.8882 29.8436C28.5 29.2798 28.5 27.9896 28.5 25.4091Z" stroke="#1C274D"/>
<path d="M23.5 17H18.5" stroke="#1C274D" stroke-linecap="round"/>
</svg>
