<svg width="44" height="43" viewBox="0 0 44 43" fill="none" xmlns="http://www.w3.org/2000/svg">
<rect x="0.922363" y="0.523254" width="42.1705" height="42.1705" rx="21.0853" fill="#E3EFFC"/>
<path d="M19.7827 13.4996C21.2037 12.8334 22.7962 12.8335 24.2172 13.4996L30.9084 16.6366C32.3639 17.319 32.3639 19.6811 30.9084 20.3634L24.2173 23.5004C22.7963 24.1665 21.2038 24.1665 19.7828 23.5004L13.0916 20.3634C11.6361 19.681 11.6361 17.3189 13.0916 16.6366L19.7827 13.4996Z" stroke="#1C274D"/>
<path d="M12 18.5V24" stroke="#1C274D" stroke-linecap="round"/>
<path d="M29 21.5V26.6254C29 27.6334 28.4965 28.5772 27.6147 29.0656C26.1463 29.8787 23.796 31 22 31C20.204 31 17.8537 29.8787 16.3853 29.0656C15.5035 28.5772 15 27.6334 15 26.6254V21.5" stroke="#1C274D" stroke-linecap="round"/>
</svg>
