<svg width="40" height="40" viewBox="0 0 40 40" fill="none" xmlns="http://www.w3.org/2000/svg">
<circle cx="20" cy="20" r="20" fill="#EFEFF9"/>
<g clip-path="url(#clip0_782_7)">
<path d="M23 19.1859C23 18.125 22.5786 17.1076 21.8284 16.3574C21.0783 15.6073 20.0609 15.1859 19 15.1859C17.9391 15.1859 16.9217 15.6073 16.1716 16.3574C15.4214 17.1076 15 18.125 15 19.1859C15 23.8525 13 25.1859 13 25.1859H25C25 25.1859 23 23.8525 23 19.1859Z" stroke="#202020" stroke-width="1.5" stroke-linecap="round" stroke-linejoin="round"/>
<path d="M20.1543 27.8525C20.0371 28.0546 19.8689 28.2223 19.6665 28.3389C19.4641 28.4555 19.2346 28.5168 19.001 28.5168C18.7674 28.5168 18.5379 28.4555 18.3355 28.3389C18.1331 28.2223 17.9649 28.0546 17.8477 27.8525" stroke="#202020" stroke-width="1.5" stroke-linecap="round" stroke-linejoin="round"/>
</g>
<defs>
<clipPath id="clip0_782_7">
<rect width="16" height="16" fill="white" transform="translate(11 13.8525)"/>
</clipPath>
</defs>
</svg>
