<svg width="20" height="20" viewBox="0 0 20 20" fill="none" xmlns="http://www.w3.org/2000/svg">
<path d="M4.14905 8.07091C2.49414 7.40895 1.66669 7.07797 1.66669 6.66668C1.66669 6.25539 2.49414 5.9244 4.14905 5.26244L6.48944 4.32629C8.14434 3.66432 8.97179 3.33334 10 3.33334C11.0282 3.33334 11.8557 3.66432 13.5106 4.32629L15.851 5.26244C17.5059 5.9244 18.3334 6.25539 18.3334 6.66668C18.3334 7.07797 17.5059 7.40895 15.851 8.07091L13.5106 9.00707C11.8557 9.66903 11.0282 10 10 10C8.97179 10 8.14434 9.66903 6.48944 9.00707L4.14905 8.07091Z" stroke="#A8518A" stroke-width="1.5"/>
<path d="M18.3334 10C18.3334 10 17.5059 10.7423 15.851 11.4042L13.5106 12.3404C11.8557 13.0024 11.0282 13.3333 10 13.3333C8.97179 13.3333 8.14434 13.0024 6.48944 12.3404L4.14905 11.4042C2.49414 10.7423 1.66669 10 1.66669 10" stroke="#A8518A" stroke-width="1.5" stroke-linecap="round"/>
<path d="M18.3334 13.3333C18.3334 13.3333 17.5059 14.0756 15.851 14.7376L13.5106 15.6737C11.8557 16.3357 11.0282 16.6667 10 16.6667C8.97179 16.6667 8.14434 16.3357 6.48944 15.6737L4.14905 14.7376C2.49414 14.0756 1.66669 13.3333 1.66669 13.3333" stroke="#A8518A" stroke-width="1.5" stroke-linecap="round"/>
</svg>
