<svg width="40" height="40" viewBox="0 0 40 40" fill="none" xmlns="http://www.w3.org/2000/svg">
<circle cx="20" cy="20" r="20" fill="#A8518A"/>
<path d="M10.7454 25.3333V14.7733H13.7054C17.0974 14.7733 19.3054 16.9013 19.3054 20.0533C19.3054 23.2053 17.0974 25.3333 13.7054 25.3333H10.7454ZM13.6254 15.8293H11.9454V24.2773H13.6254C14.9694 24.2773 16.0414 23.8933 16.8574 23.1253C17.6734 22.3413 18.0734 21.3173 18.0734 20.0373C18.0734 18.7733 17.6734 17.7653 16.8574 16.9973C16.0414 16.2133 14.9694 15.8293 13.6254 15.8293ZM28.9886 23.7493V14.7733H30.1566V25.3333H28.6686L23.0686 16.3253H23.0046V25.3333H21.8206V14.7733H23.3246L28.9086 23.7493H28.9886Z" fill="white"/>
</svg>
