<svg width="20" height="20" viewBox="0 0 20 20" fill="none" xmlns="http://www.w3.org/2000/svg">
<path d="M10 12.5C11.3807 12.5 12.5 11.3807 12.5 10C12.5 8.61929 11.3807 7.5 10 7.5C8.61929 7.5 7.5 8.61929 7.5 10C7.5 11.3807 8.61929 12.5 10 12.5Z" stroke="#202020" stroke-width="1.5" stroke-miterlimit="10" stroke-linecap="round" stroke-linejoin="round"/>
<path d="M1.66669 10.7337V9.26703C1.66669 8.40036 2.37502 7.6837 3.25002 7.6837C4.75835 7.6837 5.37502 6.61703 4.61669 5.3087C4.18335 4.5587 4.44169 3.5837 5.20002 3.15036L6.64169 2.32536C7.30002 1.9337 8.15002 2.16703 8.54169 2.82536L8.63335 2.9837C9.38335 4.29203 10.6167 4.29203 11.375 2.9837L11.4667 2.82536C11.8584 2.16703 12.7084 1.9337 13.3667 2.32536L14.8084 3.15036C15.5667 3.5837 15.825 4.5587 15.3917 5.3087C14.6334 6.61703 15.25 7.6837 16.7584 7.6837C17.625 7.6837 18.3417 8.39203 18.3417 9.26703V10.7337C18.3417 11.6004 17.6334 12.317 16.7584 12.317C15.25 12.317 14.6334 13.3837 15.3917 14.692C15.825 15.4504 15.5667 16.417 14.8084 16.8504L13.3667 17.6754C12.7084 18.067 11.8584 17.8337 11.4667 17.1754L11.375 17.017C10.625 15.7087 9.39169 15.7087 8.63335 17.017L8.54169 17.1754C8.15002 17.8337 7.30002 18.067 6.64169 17.6754L5.20002 16.8504C4.44169 16.417 4.18335 15.442 4.61669 14.692C5.37502 13.3837 4.75835 12.317 3.25002 12.317C2.37502 12.317 1.66669 11.6004 1.66669 10.7337Z" stroke="#202020" stroke-width="1.5" stroke-miterlimit="10" stroke-linecap="round" stroke-linejoin="round"/>
</svg>
