<svg width="43" height="43" viewBox="0 0 43 43" fill="none" xmlns="http://www.w3.org/2000/svg">
<rect x="0.147339" y="0.523254" width="42.1705" height="42.1705" rx="21.0853" fill="#F0F2F5"/>
<path d="M18.5 27.8333C16.1592 27.8333 14.9888 27.8333 14.1481 27.2716C13.7841 27.0284 13.4716 26.7159 13.2284 26.3519C12.6667 25.5112 12.6667 24.3408 12.6667 22C12.6667 19.6592 12.6667 18.4889 13.2284 17.6481C13.4716 17.2841 13.7841 16.9716 14.1481 16.7284C14.9888 16.1667 16.1592 16.1667 18.5 16.1667L23.5 16.1667C25.8408 16.1667 27.0111 16.1667 27.8519 16.7284C28.2159 16.9716 28.5284 17.2841 28.7716 17.6481C29.3333 18.4888 29.3333 19.6592 29.3333 22C29.3333 24.3408 29.3333 25.5112 28.7716 26.3519C28.5284 26.7159 28.2159 27.0284 27.8519 27.2716C27.0111 27.8333 25.8408 27.8333 23.5 27.8333H18.5Z" stroke="#1C274C"/>
<path d="M18.5 19.5C17.1193 19.5 16 20.6193 16 22C16 23.3807 17.1193 24.5 18.5 24.5" stroke="#1C274C"/>
<path d="M23.5 19.5C24.8807 19.5 26 20.6193 26 22C26 23.3807 24.8807 24.5 23.5 24.5" stroke="#1C274C"/>
<path d="M18.5 16.1667V27.4167" stroke="#1C274C" stroke-linecap="round"/>
<path d="M23.5 16.1667V27.4167" stroke="#1C274C" stroke-linecap="round"/>
</svg>
