<svg width="123" height="39" viewBox="0 0 123 39" fill="none" xmlns="http://www.w3.org/2000/svg">
<path opacity="0.999" fill-rule="evenodd" clip-rule="evenodd" d="M2.84644 0.00551232C13.7146 -0.00915106 24.5827 0.00551232 35.4509 0.0486399C36.9604 0.408324 37.8945 1.34247 38.2542 2.85193C38.312 13.7201 38.312 24.5882 38.2542 35.4564C37.8945 36.9659 36.9604 37.9 35.4509 38.2597C24.5827 38.3175 13.7146 38.3175 2.84644 38.2597C1.33698 37.9 0.402575 36.9659 0.0431492 35.4564C-0.0143831 24.5882 -0.0143831 13.7201 0.0431492 2.85193C0.418187 1.34161 1.35268 0.392798 2.84644 0.00551232Z" fill="#671CC9"/>
<path fill-rule="evenodd" clip-rule="evenodd" d="M23.979 1.5581C25.1943 7.34237 26.3588 13.1499 27.4723 18.9816C27.8173 20.4764 28.1624 21.9713 28.5074 23.4669C29.0586 26.2072 28.4263 28.6224 26.6098 30.7124C25.1693 32.0088 23.8177 33.3888 22.5558 34.8526C21.0903 27.6399 19.624 20.423 18.1568 13.2025C17.8786 11.9803 17.7923 10.7434 17.898 9.49358C18.1272 8.40331 18.5872 7.42518 19.2781 6.5609C20.9575 4.98243 22.5247 3.31512 23.979 1.5581Z" fill="#FEFEFE"/>
<path fill-rule="evenodd" clip-rule="evenodd" d="M14.6634 3.45572C14.7571 3.46607 14.8146 3.52386 14.8359 3.62823C16.0391 9.51515 17.2035 15.409 18.3293 21.3105C18.6363 22.663 18.9529 24.0146 19.2781 25.3645C19.8172 28.0281 19.2134 30.3854 17.4667 32.4375C15.9976 33.7632 14.6175 35.1717 13.3265 36.664C11.7589 29.2288 10.235 21.7815 8.75493 14.3239C8.26172 12.127 8.693 10.1431 10.0488 8.37226C11.7013 6.8214 13.2395 5.18255 14.6634 3.45572Z" fill="#FEFEFE"/>
<path opacity="0.939" fill-rule="evenodd" clip-rule="evenodd" d="M54.3408 13.6338C55.1171 13.6338 55.8934 13.6338 56.6697 13.6338C56.6697 18.5504 56.6697 23.4669 56.6697 28.3835C55.8934 28.3835 55.1171 28.3835 54.3408 28.3835C54.3408 23.4669 54.3408 18.5504 54.3408 13.6338Z" fill="#671CC9"/>
<path opacity="0.954" fill-rule="evenodd" clip-rule="evenodd" d="M46.2328 14.1514C47.9596 13.9883 49.5985 14.2902 51.1493 15.057C51.528 15.2744 51.873 15.5332 52.1844 15.8333C51.8049 16.463 51.3736 17.0521 50.8906 17.6016C49.2491 16.3733 47.4663 16.0999 45.5428 16.7821C44.7432 17.5809 44.7432 18.3856 45.5428 19.1973C45.8869 19.3914 46.2466 19.5492 46.621 19.6717C47.738 19.9693 48.8446 20.2996 49.9418 20.6636C51.9748 21.408 52.852 22.8597 52.5726 25.0195C52.1973 26.7463 51.1485 27.8245 49.4242 28.2541C46.5519 28.8372 44.0505 28.1471 41.92 26.184C42.3582 25.5526 42.8464 24.9634 43.3864 24.4157C44.506 25.3775 45.7998 25.9675 47.2679 26.184C48.3987 26.3634 49.3043 26.0037 49.9849 25.1058C50.267 23.9784 49.8503 23.2452 48.7342 22.9063C47.8294 22.5949 46.909 22.3361 45.974 22.13C42.7662 21.2493 41.7458 19.2508 42.912 16.1352C43.7625 15.0415 44.87 14.3799 46.2328 14.1514Z" fill="#671CC9"/>
<path opacity="0.962" fill-rule="evenodd" clip-rule="evenodd" d="M82.0287 14.4964C82.7765 14.4964 83.5235 14.4964 84.2713 14.4964C84.2713 15.5892 84.2713 16.6812 84.2713 17.7741C85.1917 17.7741 86.1111 17.7741 87.0315 17.7741C87.0315 18.4063 87.0315 19.0395 87.0315 19.6717C86.1111 19.6717 85.1917 19.6717 84.2713 19.6717C84.2342 21.6306 84.2774 23.5851 84.4007 25.5371C84.7958 26.3884 85.4427 26.661 86.3415 26.3565C86.6364 26.2193 86.8952 26.033 87.1177 25.7958C87.4455 26.322 87.7621 26.8542 88.0666 27.3915C87.1376 28.305 86.0163 28.65 84.7026 28.4266C83.2311 28.0479 82.3547 27.1138 82.0718 25.6233C82.0287 23.6394 82.014 21.6556 82.0287 19.6717C81.5974 19.6717 81.1661 19.6717 80.7349 19.6717C80.7349 19.0395 80.7349 18.4063 80.7349 17.7741C81.1661 17.7741 81.5974 17.7741 82.0287 17.7741C82.0287 16.6812 82.0287 15.5892 82.0287 14.4964Z" fill="#671CC9"/>
<path opacity="0.953" fill-rule="evenodd" clip-rule="evenodd" d="M62.7938 17.6016C64.3619 17.4868 65.6989 17.9751 66.8047 19.0679C67.1238 19.5371 67.3256 20.0547 67.4084 20.6205C67.4516 23.2082 67.4662 25.7958 67.4516 28.3835C66.7615 28.3835 66.0715 28.3835 65.3814 28.3835C65.3961 27.9513 65.3814 27.5201 65.3383 27.0896C64.1583 28.2782 62.7351 28.7242 61.0687 28.4266C58.7079 27.8616 57.7737 26.3806 58.2654 23.9845C58.6018 23.1599 59.1909 22.5992 60.0336 22.3025C60.6227 22.1101 61.2265 21.9945 61.845 21.9575C62.9663 21.9143 64.0876 21.8997 65.2089 21.9143C65.3469 20.8706 64.9441 20.1375 64.0014 19.7148C62.5126 19.4043 61.1618 19.7062 59.9474 20.6205C59.6049 20.2815 59.303 19.908 59.0417 19.4992C58.939 19.3663 58.9106 19.2223 58.9554 19.0679C60.1009 18.2123 61.3809 17.7232 62.7938 17.6016ZM62.1037 23.5532C63.1388 23.5532 64.1739 23.5532 65.2089 23.5532C65.3383 25.4232 64.4611 26.4289 62.5782 26.5721C61.9252 26.5747 61.3361 26.3884 60.8099 26.0114C60.2053 25.2671 60.2631 24.577 60.9824 23.9413C61.3525 23.7705 61.726 23.6412 62.1037 23.5532Z" fill="#671CC9"/>
<path opacity="0.944" fill-rule="evenodd" clip-rule="evenodd" d="M75.042 17.6016C77.6547 17.5602 79.1072 18.8255 79.3979 21.3968C79.441 23.7257 79.4557 26.0546 79.441 28.3835C78.6648 28.3835 77.8885 28.3835 77.1122 28.3835C77.1268 26.1978 77.1122 24.0129 77.069 21.8281C76.6869 19.9753 75.5794 19.3284 73.7482 19.8873C72.9866 20.1892 72.4544 20.7214 72.1525 21.4831C72.0266 23.7792 71.9834 26.0787 72.0231 28.3835C71.2468 28.3835 70.4705 28.3835 69.6942 28.3835C69.6942 24.847 69.6942 21.3105 69.6942 17.7741C70.4705 17.7741 71.2468 17.7741 72.0231 17.7741C72.0084 18.3209 72.0231 18.8678 72.0662 19.4129C72.802 18.377 73.7939 17.7732 75.042 17.6016Z" fill="#671CC9"/>
<path opacity="0.953" fill-rule="evenodd" clip-rule="evenodd" d="M92.8106 17.6016C94.3787 17.4868 95.7157 17.9751 96.8215 19.0679C97.1406 19.5371 97.3425 20.0547 97.4253 20.6205C97.4684 23.2082 97.483 25.7958 97.4684 28.3835C96.7783 28.3835 96.0883 28.3835 95.3983 28.3835C95.4129 27.9513 95.3983 27.5201 95.3551 27.0896C94.1752 28.2782 92.752 28.7242 91.0855 28.4266C88.7247 27.8616 87.7906 26.3806 88.2822 23.9845C88.6186 23.1599 89.2077 22.5992 90.0504 22.3025C90.6396 22.1101 91.2433 21.9945 91.8618 21.9575C92.9831 21.9143 94.1044 21.8997 95.2257 21.9143C95.3638 20.8706 94.9609 20.1375 94.0182 19.7148C92.5294 19.4043 91.1787 19.7062 89.9642 20.6205C89.6218 20.2815 89.3199 19.908 89.0585 19.4992C88.9559 19.3663 88.9274 19.2223 88.9722 19.0679C90.1177 18.2123 91.3977 17.7232 92.8106 17.6016ZM92.1206 23.5532C93.1556 23.5532 94.1907 23.5532 95.2257 23.5532C95.3551 25.4232 94.4779 26.4289 92.595 26.5721C91.942 26.5747 91.3529 26.3884 90.8267 26.0114C90.2221 25.2671 90.2799 24.577 90.9992 23.9413C91.3693 23.7705 91.7428 23.6412 92.1206 23.5532Z" fill="#671CC9"/>
<path opacity="0.952" fill-rule="evenodd" clip-rule="evenodd" d="M105.059 17.6016C108.489 17.768 110.301 19.5656 110.493 22.9925C110.505 25.6526 109.269 27.4347 106.784 28.3403C104.929 28.7854 103.362 28.311 102.083 26.9171C102.04 28.6707 102.025 30.4243 102.04 32.1787C101.264 32.1787 100.487 32.1787 99.711 32.1787C99.711 27.3769 99.711 22.5759 99.711 17.7741C100.487 17.7741 101.264 17.7741 102.04 17.7741C102.025 18.3209 102.04 18.8678 102.083 19.4129C102.788 18.3347 103.78 17.7309 105.059 17.6016ZM104.455 19.6717C106.359 19.5777 107.58 20.4402 108.121 22.2593C108.437 24.6728 107.402 26.0822 105.016 26.4858C102.81 26.0899 101.804 24.7676 101.997 22.5181C102.224 21.0406 103.044 20.0917 104.455 19.6717Z" fill="#671CC9"/>
<path opacity="0.952" fill-rule="evenodd" clip-rule="evenodd" d="M117.566 17.6016C120.996 17.768 122.808 19.5656 123 22.9925C123.012 25.6526 121.776 27.4347 119.291 28.3403C117.436 28.7854 115.869 28.311 114.59 26.9171C114.547 28.6707 114.532 30.4243 114.547 32.1787C113.771 32.1787 112.994 32.1787 112.218 32.1787C112.218 27.3769 112.218 22.5759 112.218 17.7741C112.994 17.7741 113.771 17.7741 114.547 17.7741C114.532 18.3209 114.547 18.8678 114.59 19.4129C115.295 18.3347 116.287 17.7309 117.566 17.6016ZM116.962 19.6717C118.866 19.5777 120.087 20.4402 120.628 22.2593C120.944 24.6728 119.909 26.0822 117.523 26.4858C115.317 26.0899 114.311 24.7676 114.504 22.5181C114.731 21.0406 115.551 20.0917 116.962 19.6717Z" fill="#671CC9"/>
</svg>
